<svg id="forge-icon_-_2024-05-29T174542.230" data-name="forge-icon - 2024-05-29T174542.230" xmlns="http://www.w3.org/2000/svg" width="11" height="8" viewBox="0 0 11 8">
  <path id="線_579" data-name="線 579" d="M-1.159-.751H9.159A.359.359,0,0,0,9.5-1.126.359.359,0,0,0,9.159-1.5H-1.159a.359.359,0,0,0-.341.374A.359.359,0,0,0-1.159-.751Z" transform="translate(1.5 5.263)" fill="#242422"/>
  <path id="パス_5" data-name="パス 5" d="M9.214,21.13a.41.41,0,0,0,.259-.089l4.3-3.509a.286.286,0,0,0,.012-.449l-4.3-3.855a.422.422,0,0,0-.529-.012.286.286,0,0,0-.014.45l4.042,3.625L8.955,20.582a.286.286,0,0,0-.011.45A.408.408,0,0,0,9.214,21.13Z" transform="translate(-2.889 -13.13)" fill="#242422"/>
</svg>
