<svg xmlns="http://www.w3.org/2000/svg" width="25" height="25" viewBox="0 0 25 25">
  <g id="グループ_199" data-name="グループ 199" transform="translate(-512 -697)">
    <circle id="楕円形_13" data-name="楕円形 13" cx="12.5" cy="12.5" r="12.5" transform="translate(512 697)" fill="#fff"/>
    <path id="forge-icon_-_2024-05-29T172355.839" data-name="forge-icon - 2024-05-29T172355.839" d="M17.658,16.3a.289.289,0,0,1-.2-.086.323.323,0,0,1-.011-.442l4.811-5.319-4.8-4.836a.323.323,0,0,1-.009-.442.288.288,0,0,1,.421-.009l5.014,5.051a.323.323,0,0,1,.01.44L17.874,16.2A.29.29,0,0,1,17.658,16.3Z" transform="translate(505.14 698.81)" fill="#242422"/>
  </g>
</svg>
