<svg xmlns="http://www.w3.org/2000/svg" width="9" height="7" viewBox="0 0 9 7">
  <g id="forge-icon_-_2024-05-29T162932.335" data-name="forge-icon - 2024-05-29T162932.335" transform="translate(-8.83 -13.13)">
    <path id="線_573" data-name="線 573" d="M7.221-.912H-1.221A.287.287,0,0,1-1.5-1.206.287.287,0,0,1-1.221-1.5H7.221a.287.287,0,0,1,.279.294A.287.287,0,0,1,7.221-.912Z" transform="translate(10.33 17.957)" fill="#b6bfc2"/>
    <path id="パス_5" data-name="パス 5" d="M37.344,20.13a.3.3,0,0,1-.212-.086.269.269,0,0,1,.009-.394L40.3,16.772,37.131,13.6a.269.269,0,0,1,.011-.394.305.305,0,0,1,.415.01l3.374,3.373a.269.269,0,0,1-.01.393l-3.374,3.07A.3.3,0,0,1,37.344,20.13Z" transform="translate(-23.182 0)" fill="#b6bfc2"/>
  </g>
</svg>
