<svg xmlns="http://www.w3.org/2000/svg" width="30" height="30" viewBox="0 0 30 30">
  <path id="パス_434" data-name="パス 434" d="M15.636,6.509a3.338,3.338,0,0,1,2.066.719,3.294,3.294,0,0,1,1.163,1.845l0,.008.837,3.847,0,.008a3.286,3.286,0,0,1-1.5,3.458l-.005,0-1.364.826c.382,2.26,1.887,4.415,4.476,6.409a26.092,26.092,0,0,0,5.23,3.056l.7-1.056,0,0a3.325,3.325,0,0,1,3.443-1.388H30.7l3.81.836.01,0a3.282,3.282,0,0,1,2.557,3.17s0,.005,0,.008V34s0,.006,0,.008a2.513,2.513,0,0,1-2.366,2.469H34.7c-.494.022-.991.033-1.476.033a27.5,27.5,0,0,1-10.652-2.028,25.037,25.037,0,0,1-9.313-6.816,24.391,24.391,0,0,1-4.873-9.951,43.841,43.841,0,0,1-1.3-8.361,2.463,2.463,0,0,1,.641-1.807,2.5,2.5,0,0,1,1.751-.8l6.07-.233h.094ZM17.1,9.462A1.5,1.5,0,0,0,15.6,8.3l-6.066.233H9.533a.68.68,0,0,0-.477.218.67.67,0,0,0-.174.491v0c.2,3.438,1.166,12,5.74,17.248a23.252,23.252,0,0,0,8.645,6.335,25.7,25.7,0,0,0,9.952,1.887c.456,0,.924-.01,1.388-.031a.709.709,0,0,0,.662-.693V28.262a1.492,1.492,0,0,0-1.158-1.436l-3.8-.834a1.511,1.511,0,0,0-1.56.63l-.841,1.264a1.512,1.512,0,0,1-1.836.554l-.009,0a28.1,28.1,0,0,1-5.859-3.389,16.527,16.527,0,0,1-3.3-3.3,9.926,9.926,0,0,1-1.89-4.469,1.485,1.485,0,0,1,.716-1.488l1.522-.922a1.494,1.494,0,0,0,.679-1.567Z" transform="translate(-7.075 -6.509)" fill="#fff"/>
</svg>
