<svg xmlns="http://www.w3.org/2000/svg" width="19" height="21" viewBox="0 0 19 21">
  <g id="forge-icon_-_2024-05-31T100513.615" data-name="forge-icon - 2024-05-31T100513.615" transform="translate(-7.71 -6.14)">
    <path id="楕円形_12" data-name="楕円形 12" d="M6.368-1.5a7.866,7.866,0,0,1,5.563,13.431A7.868,7.868,0,1,1,3.305-.881,7.819,7.819,0,0,1,6.368-1.5Zm0,14.531A6.664,6.664,0,0,0,11.08,1.656,6.664,6.664,0,1,0,1.656,11.08,6.62,6.62,0,0,0,6.368,13.031Z" transform="translate(9.21 7.64)"/>
    <path id="線_584" data-name="線 584" d="M5.545,7.009-1.1-.2l.885-.816L6.43,6.193Z" transform="translate(20.28 20.131)"/>
  </g>
</svg>
