<svg id="forge-icon_-_2024-07-05T131907.411" data-name="forge-icon - 2024-07-05T131907.411" xmlns="http://www.w3.org/2000/svg" width="34" height="33" viewBox="0 0 34 33">
  <path id="パス_431" data-name="パス 431" d="M31.452,39.24H7.4a.96.96,0,0,1-.959-.961V15.438a.962.962,0,0,1,.257-.654l7.647-8.237a.958.958,0,0,1,.7-.306H31.452a.96.96,0,0,1,.959.961V15.88a.959.959,0,1,1-1.918,0V8.162H15.464L8.358,15.816v21.5H30.493V32.239a.959.959,0,1,1,1.918,0v6.04A.96.96,0,0,1,31.452,39.24Z" transform="translate(-6.44 -6.24)" fill="#fff"/>
  <path id="パス_432" data-name="パス 432" d="M15.126,16.475H7.408a.968.968,0,0,1,0-1.936H14.16l.011-7.333a.968.968,0,1,1,1.936,0l-.013,8.3A.968.968,0,0,1,15.126,16.475Z" transform="translate(-6.44 -6.24)" fill="#fff"/>
  <path id="線_833" data-name="線 833" d="M11.091.436H-.532A.968.968,0,0,1-1.5-.532.968.968,0,0,1-.532-1.5H11.091a.968.968,0,0,1,.968.968A.968.968,0,0,1,11.091.436Z" transform="translate(4.824 27.064)" fill="#fff"/>
  <path id="線_834" data-name="線 834" d="M9.8.436H-.532A.968.968,0,0,1-1.5-.532.968.968,0,0,1-.532-1.5H9.8a.968.968,0,0,1,.968.968A.968.968,0,0,1,9.8.436Z" transform="translate(4.824 22.884)" fill="#fff"/>
  <path id="線_835" data-name="線 835" d="M12.381.436H-.532A.968.968,0,0,1-1.5-.532.968.968,0,0,1-.532-1.5H12.381a.968.968,0,0,1,.968.968A.968.968,0,0,1,12.381.436Z" transform="translate(4.824 18.978)" fill="#fff"/>
  <path id="線_836" data-name="線 836" d="M16.253.436H-.532A.968.968,0,0,1-1.5-.532.968.968,0,0,1-.532-1.5H16.253a.968.968,0,0,1,.968.968A.968.968,0,0,1,16.253.436Z" transform="translate(4.824 15.073)" fill="#fff"/>
  <path id="パス_433" data-name="パス 433" d="M34.331,37.768h0a1.293,1.293,0,0,1-.765-.253,1.276,1.276,0,0,1-.518-.993l-.1-2.772q0-.012,0-.023a1.393,1.393,0,0,1,.251-.815l.016-.023L44.876,17.126a1.755,1.755,0,0,1,2.471-.369l2.023,1.507a1.762,1.762,0,0,1,.37,2.462L38.088,36.486a1.308,1.308,0,0,1-.775.526l-2.645.711A1.284,1.284,0,0,1,34.331,37.768Zm.561-3.888.061,1.761,1.686-.453L48.079,19.716l-1.747-1.3Z" transform="translate(-16.084 -9.982)" fill="#fff"/>
  <path id="線_837" data-name="線 837" d="M2.362,2.844-.91.347.265-1.192l3.272,2.5Z" transform="translate(28.321 10.322)" fill="#fff"/>
</svg>
