<svg id="グループ_46" data-name="グループ 46" xmlns="http://www.w3.org/2000/svg" xmlns:xlink="http://www.w3.org/1999/xlink" width="156" height="28" viewBox="0 0 156 28">
  <defs>
    <clipPath id="clip-path">
      <rect id="長方形_2593" data-name="長方形 2593" width="156" height="28" fill="none"/>
    </clipPath>
  </defs>
  <g id="グループ_44" data-name="グループ 44" transform="translate(0 0)" clip-path="url(#clip-path)">
    <path id="パス_1" data-name="パス 1" d="M8.58,34.368A13.559,13.559,0,0,1,.438,28.792,2.484,2.484,0,0,1,0,27.25V13.8c0-.478.342-.679.759-.445l8.26,4.617a1.639,1.639,0,0,1,.759,1.293V34.031c0,.478-.341.544-1.2.338" transform="translate(0 -6.761)" fill="#00a0e1"/>
    <path id="パス_2" data-name="パス 2" d="M24.6,38.581a7.7,7.7,0,0,1-1.452.054c-.5-.018-.5-.41-.5-.888V29.083a1.231,1.231,0,0,1,.761-1.291l12.308-6.818a.628.628,0,0,1,.964.424,12.38,12.38,0,0,1,.476,3.431C36.3,37.928,24.6,38.581,24.6,38.581" transform="translate(-11.55 -10.648)" fill="#ffd010"/>
    <path id="パス_3" data-name="パス 3" d="M2.036,5.271c-.417-.234-.436-.522-.053-.934,0,0,4.688-4.591,10.711-4.327A13.923,13.923,0,0,1,24.922,7.869a.7.7,0,0,1-.206,1.092L17.412,13a1.2,1.2,0,0,1-1.519,0Z" transform="translate(-0.871 0)" fill="#e15689"/>
    <path id="パス_4" data-name="パス 4" d="M71.392,25.051l.188-.906h3.3l.359-1.736h-3.3l.136-.655h3.3l1.27-6.138h-3.3l.132-.636h3.3l.359-1.736h-3.3L74,12.463l3.349-.236.365-1.76-8.7.583-.368,1.78,3.325-.218-.131.632H68.085l-.359,1.736h3.751l-.132.636h-3.28l-1.27,6.138h3.28l-.136.655h-3.28L66.3,24.145h3.28l-.209,1.009-3.784.163-.365,1.763,9.411-.522.353-1.705Zm1.479-7.844H74.44l-.147.709H72.724Zm-.465,2.246h1.57l-.147.709H72.259Zm-1.839.709H68.979l.147-.709h1.588Zm.465-2.246H69.444l.147-.709h1.588Zm79.3,8.935.506-2.444h9.687l1.773-8.007h-10.84l.509-2.462H162.8l.663-3.149h2.477l-.662,3.149h3.044l-.51,2.462h-3.041l-2.278,10.451Zm34.965-14.621,1.205-2.194,2.4-.013-1.207,2.207Zm-15.842,14.6,3.43-15.974h2.476l-.692,3.064H186.7l-.513,2.48H174.156l-1.715,7.951h12.688l-.513,2.48ZM88.832,12.752h7.375l-.3,1.47H91.972L89.9,24.253h9.935l2.076-10.031H97.976l.3-1.47h7.357l.408-1.971H89.241Zm5.551,9.6H92.089l.466-2.249h2.293Zm.828-4H92.918l.462-2.231h2.294Zm2.208-2.231H99.7l-.462,2.231H96.958Zm1.451,3.985-.466,2.249H96.129l.466-2.249Zm82.819-7.874,1.206-2.194,2.4-.013-1.208,2.207ZM118.3,19.021l-1.608,7.767h-1.873l1.2-5.8h-1.679l-1.3,6.285h-2l1.3-6.285h-1.679l-1.2,5.8h-1.873l1.608-7.767h3.551l.246-1.24h-3.553l.4-1.953H113.4l.367-1.717h-1.871l-.488,1.119h-1.962l1.937-4.419h1.968l-.6,1.311h1.432l.308-1.311h2l-.308,1.311h3.182l-.412,1.99h-3.19l-.367,1.717h3.551l-.4,1.953h-3.551l-.246,1.24Zm14.452-1.286h1.26l-1.979,9.56H129.85l1.437-6.94-.012.022h-2.32l5.411-9.567h2.32Zm-7.919-6.926H126.8l-3.447,16.468H119.21l.4-1.953h2.175ZM80.714,13.269h3.7l-2.9,14.009H79.55l2.537-12.257H80.208L76.675,27.187H74.739l3.5-12.166H77.16l.363-1.752h1.223l.7-2.778h1.969Zm39.3,10.695h-1.946l2.761-13.154h1.946Zm19.87-11.752h7.883l-.426,2.062h-4.766l-.514,2.484h4.3l-.42,2.025h-4.294l-.537,2.593H145.4l-.423,2.043h-4.295l-.8,3.858h-2.163l2.692-13h-1.536l-2.111,4.42h-2.289l3.957-7.883h2.23ZM102.8,14.259h2.054l-2.65,12.8H86.342L88.98,14.313h2.055L88.8,25.125h11.753Z" transform="translate(-33.252 -5.113)" fill="#1a1311"/>
  </g>
</svg>
