<svg id="forge-icon_-_2024-05-29T174542.230" data-name="forge-icon - 2024-05-29T174542.230" xmlns="http://www.w3.org/2000/svg" width="16.253" height="11.82" viewBox="0 0 16.253 11.82">
  <path id="線_579" data-name="線 579" d="M-1-.394H14.25a.53.53,0,0,0,.5-.553.53.53,0,0,0-.5-.553H-1a.53.53,0,0,0-.5.553A.53.53,0,0,0-1-.394Z" transform="translate(1.5 7.059)" fill="#242422"/>
  <path id="パス_5" data-name="パス 5" d="M9.393,24.95a.606.606,0,0,0,.383-.131l6.35-5.184a.422.422,0,0,0,.018-.663l-6.35-5.7a.624.624,0,0,0-.782-.018.423.423,0,0,0-.021.665l5.972,5.356L9.01,24.141a.423.423,0,0,0-.016.665A.6.6,0,0,0,9.393,24.95Z" transform="translate(-0.047 -13.13)" fill="#242422"/>
</svg>
